<svg id="Layer_1" data-name="Layer 1" xmlns="http://www.w3.org/2000/svg" width="100" height="100" viewBox="0 0 100 100"><title>Artboard 1</title><path d="M87.41113,92.38947H12.59188a9.34148,9.34148,0,0,1-9.33164-9.33163V33.94518a1.25434,1.25434,0,0,1,1.25437-1.25436h90.972a1.25285,1.25285,0,0,1,1.25262,1.25436V83.05784A9.33961,9.33961,0,0,1,87.41113,92.38947ZM5.769,35.19955V83.05784a6.8313,6.8313,0,0,0,6.82291,6.8264H87.41113a6.83243,6.83243,0,0,0,6.82291-6.8264V35.19955Z" style="fill:#005f6b"/><path d="M86.35423,16.46819H13.646A9.1308,9.1308,0,0,0,4.51523,25.599v8.34651H95.485V25.599A9.13081,9.13081,0,0,0,86.35423,16.46819Z" style="fill:#00b4cc"/><path d="M80.59809,21.56282H13.00383c-4.68816,0-8.48861,2.89638-8.48861,6.46921v5.9135H89.08665V28.032C89.08665,24.45916,85.28617,21.56282,80.59809,21.56282Z" style="fill:#008c9e"/><path d="M13.646,91.13544h72.7082A9.13081,9.13081,0,0,0,95.485,82.0046V33.62991H4.51522V82.0046A9.13082,9.13082,0,0,0,13.646,91.13544Z" style="fill:#fff"/><path d="M16.96584,83.67822h64.0743a7.99712,7.99712,0,0,0,8.04654-7.94676V33.62991H5.78428c.72926,9.79328,1.27992,19.59914,2.04784,29.38963C8.36315,69.79,6.92089,83.67822,16.96584,83.67822Z" style="fill:#00b4cc"/><path d="M20.62727,23.75616h0A3.02713,3.02713,0,0,1,17.609,20.73789V12.19841a3.02715,3.02715,0,0,1,3.01827-3.01827h0a3.02714,3.02714,0,0,1,3.01827,3.01827v8.53948A3.02712,3.02712,0,0,1,20.62727,23.75616Z" style="fill:#fff"/><path d="M79.373,23.75616h0a3.02712,3.02712,0,0,1-3.01826-3.01827V12.19841A3.02714,3.02714,0,0,1,79.373,9.18014h0a3.02712,3.02712,0,0,1,3.01828,3.01827v8.53948A3.02715,3.02715,0,0,1,79.373,23.75616Z" style="fill:#fff"/><path d="M76.351,17.40052H23.64848a1.25437,1.25437,0,1,1,0-2.50873H76.351a1.25437,1.25437,0,0,1,0,2.50873Z" style="fill:#005f6b"/><path d="M87.42513,92.38947H12.61287a9.36275,9.36275,0,0,1-9.35263-9.35262V24.24267a9.36239,9.36239,0,0,1,9.35263-9.35088h4.98072a1.25437,1.25437,0,0,1,0,2.50873H12.61287A6.85034,6.85034,0,0,0,5.769,24.24267V83.03685a6.8537,6.8537,0,0,0,6.8439,6.84739H87.42513A6.83623,6.83623,0,0,0,94.234,83.03685V24.24267a6.83285,6.83285,0,0,0-6.80891-6.84215H82.40767a1.25437,1.25437,0,0,1,0-2.50873h5.01746a9.343,9.343,0,0,1,9.31414,9.35088V83.03685A9.3434,9.3434,0,0,1,87.42513,92.38947Z" style="fill:#005f6b"/><path d="M94.91283,34.88464H5.05869a1.25436,1.25436,0,0,1,0-2.50872H94.91283a1.25436,1.25436,0,0,1,0,2.50872Z" style="fill:#005f6b"/><path d="M20.62891,24.69578A4.279,4.279,0,0,1,16.355,20.42184V11.88271a4.27306,4.27306,0,0,1,8.54612,0v8.53913A4.27857,4.27857,0,0,1,20.62891,24.69578Zm0-14.57652a1.76653,1.76653,0,0,0-1.76521,1.76345v8.53913a1.76433,1.76433,0,1,0,3.52866,0V11.88271A1.765,1.765,0,0,0,20.62891,10.11926Z" style="fill:#005f6b"/><path d="M79.3741,24.69578a4.27857,4.27857,0,0,1-4.27218-4.27394V11.88271a4.27219,4.27219,0,0,1,8.54437,0v8.53913A4.27857,4.27857,0,0,1,79.3741,24.69578Zm0-14.57652a1.768,1.768,0,0,0-1.76695,1.76345v8.53913a1.767,1.767,0,0,0,3.53391,0V11.88271A1.768,1.768,0,0,0,79.3741,10.11926Z" style="fill:#005f6b"/><path d="M53.5083,22.81685H36.87616a1.25437,1.25437,0,0,1,0-2.50873H53.5083a1.25437,1.25437,0,1,1,0,2.50873Z" style="fill:#005f6b"/><path d="M63.1251,22.81685H58.2336a1.25437,1.25437,0,0,1,0-2.50873h4.8915a1.25437,1.25437,0,0,1,0,2.50873Z" style="fill:#005f6b"/><path d="M48.874,74.30353a3.14311,3.14311,0,0,1-2.01713-.72428L32.12112,61.59894a3.97872,3.97872,0,0,1-.726-5.02446A3.31977,3.31977,0,0,1,34.19949,55.042a3.15113,3.15113,0,0,1,2.01538.72078l12.05029,9.79L63.09711,44.463A2.943,2.943,0,0,1,65.158,43.04939l.53184-.04549a3.45635,3.45635,0,0,1,2.08536.72953A3.85405,3.85405,0,0,1,68.475,48.8506L51.58214,72.89A3.29761,3.29761,0,0,1,48.874,74.30353Z" style="fill:#fff"/><path d="M65.68865,44.25877a2.19771,2.19771,0,0,1,1.33.47609,2.56416,2.56416,0,0,1,.39487,3.44789l-16.856,23.9854a2.05519,2.05519,0,0,1-1.68435.88121,1.884,1.884,0,0,1-1.21274-.43148L32.91155,60.6252a2.74877,2.74877,0,0,1-.46079-3.373,2.08525,2.08525,0,0,1,1.74868-.95612,1.88621,1.88621,0,0,1,1.21437.43144l13.10274,10.6435,15.605-22.18649a1.76583,1.76583,0,0,1,1.25094-.89944,1.89944,1.89944,0,0,1,.31614-.02637m0-2.508a4.40531,4.40531,0,0,0-.73352.06134,4.27465,4.27465,0,0,0-2.93009,1.99376L48.01151,63.72962,36.99513,54.78088a4.3926,4.3926,0,0,0-2.79549-.99279,4.56753,4.56753,0,0,0-3.85925,2.109,5.21592,5.21592,0,0,0,.96745,6.65641L46.07821,74.56378a4.38921,4.38921,0,0,0,2.795.99361A4.55976,4.55976,0,0,0,52.618,73.59816L69.46554,49.62479a5.06923,5.06923,0,0,0-.74889-6.73577l-.089-.08191-.09652-.07294a4.69524,4.69524,0,0,0-2.84243-.98344Z" style="fill:#008c9e"/></svg>